<svg xmlns="http://www.w3.org/2000/svg" width="65.99" height="64.882" viewBox="0 0 65.99 64.882">
  <g id="hw-logo-glyph_svg" transform="translate(-871 -452)">
    <g id="Group_16270" data-name="Group 16270" transform="translate(871 452)">
      <path id="Path_11596" data-name="Path 11596" d="M871.026,477.585c0-8.149.019-16.3-.026-24.451,0-.927.211-1.138,1.135-1.134q31.861.044,63.721,0c.927,0,1.138.208,1.134,1.134q-.044,31.3,0,62.613c0,.927-.208,1.138-1.134,1.135q-31.861-.044-63.721,0c-.927,0-1.138-.208-1.134-1.135.041-9.384.026-18.771.026-28.159.182.007.367.015.549.019,2.113,12.813,9.569,20.992,21.748,25.074.222,1.216.934.8,1.616.489.189.015.378.033.567.048-.011.686.189,1.212.964,1.335a42.011,42.011,0,0,0,13.28.256,25.7,25.7,0,0,0,10.474-4.093,28.688,28.688,0,0,0,4.646-3.289,35.416,35.416,0,0,0,7.719-11.475,30.526,30.526,0,0,0,1.435-18.912c-1.78-7.641-6.436-13.525-12.665-18.2-.56-.419-.975-.6-1.157.3l-.489-.267c.267-1.068-.386-.931-1.038-.79a32.814,32.814,0,0,0-11.7-4.631c-.241-.7-.623-.76-1.131-.248-7.319-.678-14.248.452-20.521,4.5A30.513,30.513,0,0,0,871.7,477.567C871.478,477.578,871.252,477.582,871.026,477.585Z" transform="translate(-871 -452)" fill="#fbf9f9"/>
      <path id="Path_11597" data-name="Path 11597" d="M871.07,520.985c.226,0,.456-.007.682-.015a79.519,79.519,0,0,0-.133,10.036c-.182-.007-.367-.015-.549-.019Q871.07,525.988,871.07,520.985Z" transform="translate(-871.044 -495.399)" fill="#bbb5b5"/>
      <path id="Path_11598" data-name="Path 11598" d="M872.345,489.354a79.527,79.527,0,0,1,.133-10.036A30.513,30.513,0,0,1,886.1,459.456c6.273-4.049,13.2-5.183,20.521-4.5a.957.957,0,0,0,1.131.248,32.747,32.747,0,0,1,11.7,4.631,1.59,1.59,0,0,0,1.038.79l.489.267a7.035,7.035,0,0,0,.7.816c9.491,8.249,12.687,18.575,10.148,30.784-2.243,10.8-12.68,20.651-23.606,22.427a45.988,45.988,0,0,1-11.942.056c-.189-.015-.378-.033-.567-.048a1.916,1.916,0,0,0-1.616-.489C881.915,510.346,874.459,502.163,872.345,489.354Zm29.927,24.4a28.7,28.7,0,0,0,28.659-28.581,28.591,28.591,0,0,0-57.181-.126C873.7,501.11,886.356,513.415,902.273,513.749Z" transform="translate(-871.771 -453.743)" fill="#862229"/>
      <path id="Path_11599" data-name="Path 11599" d="M937.109,524.25a45.986,45.986,0,0,0,11.942-.056c10.922-1.776,21.359-11.627,23.606-22.427,2.54-12.209-.656-22.534-10.148-30.784a7.037,7.037,0,0,1-.7-.816c.182-.9.6-.716,1.157-.3,6.232,4.671,10.885,10.555,12.665,18.2a30.526,30.526,0,0,1-1.435,18.912,35.457,35.457,0,0,1-7.719,11.475,28.694,28.694,0,0,1-4.646,3.289,25.7,25.7,0,0,1-10.474,4.093,42.116,42.116,0,0,1-13.28-.256C937.295,525.459,937.1,524.936,937.109,524.25Z" transform="translate(-912.599 -463.028)" fill="#bbb5b5"/>
      <path id="Path_11600" data-name="Path 11600" d="M931.21,615.646a1.916,1.916,0,0,1,1.617.489C932.148,616.443,931.432,616.862,931.21,615.646Z" transform="translate(-908.887 -554.961)" fill="#bbb5b5"/>
      <path id="Path_11601" data-name="Path 11601" d="M966.131,454.935a.957.957,0,0,1-1.131-.248C965.5,454.175,965.886,454.234,966.131,454.935Z" transform="translate(-930.149 -453.478)" fill="#bbb5b5"/>
      <path id="Path_11602" data-name="Path 11602" d="M1000.638,469.038a1.579,1.579,0,0,1-1.038-.79C1000.253,468.108,1000.9,467.97,1000.638,469.038Z" transform="translate(-951.921 -462.164)" fill="#bbb5b5"/>
      <path id="Path_11603" data-name="Path 11603" d="M904.862,516.732c-15.913-.33-28.578-12.635-28.522-28.707a28.591,28.591,0,0,1,57.181.126A28.708,28.708,0,0,1,904.862,516.732ZM917.2,480.817c-.857-.567-.645-1.264-.552-1.817.478-2.844,1.016-5.676,1.572-8.505.193-.982,1.268-2.1.682-2.825-.6-.745-2.013-.786-2.985-1.3-1.5-.786-2.158-.3-2.614,1.235a49.369,49.369,0,0,0-2.187,12.153c-.048,1.294-.371,1.846-1.809,1.783-2.833-.122-5.68-.137-8.512,0-1.513.074-1.932-.534-1.972-1.869a42.435,42.435,0,0,0-1.654-10.192c-1.068-3.8-1.02-3.711-4.79-2.532-1.594.5-1.557,1.149-1.064,2.469,1.353,3.607,1.609,7.415,2.009,11.441-.493-.3-.767-.371-.882-.549-.478-.716-.9-1.464-1.353-2.2-2.054-3.4-2.017-3.352-5.131-1.049-1.075.793-1.264,1.294-.382,2.421a52.277,52.277,0,0,1,6.347,10.6,5.6,5.6,0,0,1,.727,2.588c-.145,3.37-1.439,6.41-2.677,9.458-.834,2.058-.9,2.028,1.283,2.729a9.942,9.942,0,0,1,1.387.5c1.1.538,2.106.779,2.807-.934a10.35,10.35,0,0,1,.3,3.641c-.015.415-.148,1.057.386,1.086a21.043,21.043,0,0,0,4.783-.019c.816-.137.768-1.42,1.042-2.21a79.273,79.273,0,0,1,2.9-8.068,2.436,2.436,0,0,1,.86,1.405c.908,2.68,1.843,5.354,2.7,8.053.245.764.575,1.212,1.413,1.075,1.461-.237,3.1.612,4.375-.645.185-.182.093-.719.03-1.072a7.726,7.726,0,0,1,.374-3.385c.419,1.909,1.435,1.654,2.643,1.086a16,16,0,0,1,2.61-.912c.908-.245,1-.634.56-1.442a25.56,25.56,0,0,1-2.073-5.328c-.856-3.022-1.724-5.962.271-9.02,1.542-2.362,2.755-4.946,4.36-7.285,2.295-3.344,2.262-3.3-.9-5.869-.982-.8-1.361-.6-1.906.4C919.276,477.569,918.231,479.145,917.2,480.817Z" transform="translate(-874.36 -456.725)" fill="#fbf9f9"/>
      <path id="Path_11604" data-name="Path 11604" d="M931.937,491.836c1.027-1.672,2.073-3.248,2.977-4.9.545-1,.923-1.2,1.906-.4,3.166,2.573,3.2,2.525.9,5.869-1.605,2.339-2.818,4.924-4.36,7.285-2,3.055-1.131,6-.271,9.02a25.351,25.351,0,0,0,2.072,5.328c.441.808.349,1.194-.56,1.442a15.659,15.659,0,0,0-2.61.912c-1.209.567-2.225.823-2.643-1.086a7.723,7.723,0,0,0-.374,3.385c.063.356.156.89-.03,1.071-1.275,1.261-2.91.408-4.375.645-.838.137-1.168-.311-1.413-1.075-.856-2.7-1.794-5.372-2.7-8.053a2.387,2.387,0,0,0-.86-1.405,78.388,78.388,0,0,0-2.9,8.068c-.274.79-.23,2.073-1.042,2.21a21.04,21.04,0,0,1-4.783.019c-.534-.033-.4-.671-.386-1.086a10.267,10.267,0,0,0-.3-3.641c-.7,1.713-1.709,1.472-2.807.934a10.437,10.437,0,0,0-1.387-.5c-2.187-.7-2.121-.671-1.283-2.729,1.238-3.048,2.532-6.088,2.677-9.458a5.607,5.607,0,0,0-.727-2.588,52.109,52.109,0,0,0-6.347-10.6c-.882-1.127-.693-1.628.382-2.421,3.114-2.3,3.074-2.354,5.131,1.049.445.738.875,1.487,1.353,2.2.119.178.389.252.882.549-.4-4.03-.656-7.834-2.009-11.441-.493-1.316-.534-1.969,1.064-2.469,3.767-1.179,3.722-1.272,4.79,2.532a42.438,42.438,0,0,1,1.654,10.192c.041,1.335.46,1.943,1.972,1.869,2.833-.141,5.68-.126,8.513,0,1.438.063,1.761-.489,1.809-1.783a49.37,49.37,0,0,1,2.187-12.153c.452-1.531,1.109-2.021,2.614-1.235.971.508,2.384.552,2.985,1.3.586.727-.489,1.846-.682,2.825-.556,2.829-1.094,5.661-1.572,8.505C931.292,490.572,931.084,491.269,931.937,491.836Zm-12.379,6.744.122.041.122-.041c1.531,2.655,3.059,5.313,4.712,8.183a8.966,8.966,0,0,1,.571-1.524c1.238-1.913.823-3.993.7-6.062-.048-.808-.378-1.068-1.135-1.053-1.6.033-3.2.019-4.8.026h-.36c-1.535-.007-3.074.007-4.608-.03-.742-.019-1.049.241-1.2,1.02a8.986,8.986,0,0,0,1.409,7.4C916.643,503.793,918.1,501.186,919.557,498.58Z" transform="translate(-889.093 -467.744)" fill="#862229"/>
      <path id="Path_11605" data-name="Path 11605" d="M953.9,533.975c1.6-.007,3.2.007,4.8-.026.756-.015,1.09.241,1.135,1.053.119,2.069.538,4.149-.7,6.062a8.962,8.962,0,0,0-.571,1.524c-1.654-2.873-3.185-5.528-4.712-8.182C953.865,534.26,953.883,534.12,953.9,533.975Z" transform="translate(-923.133 -503.566)" fill="#fbf9f9"/>
      <path id="Path_11606" data-name="Path 11606" d="M942.822,534.395c-1.457,2.606-2.914,5.209-4.453,7.96a8.983,8.983,0,0,1-1.409-7.4c.145-.779.452-1.034,1.2-1.02,1.535.037,3.074.022,4.608.03C942.785,534.113,942.8,534.254,942.822,534.395Z" transform="translate(-912.357 -503.559)" fill="#fbf9f9"/>
      <path id="Path_11607" data-name="Path 11607" d="M953.076,534.446c-.018-.141-.037-.285-.056-.426h.36c-.018.145-.037.285-.056.43l-.122.041Z" transform="translate(-922.611 -503.611)" fill="#bbb5b5"/>
    </g>
  </g>
</svg>
